<svg width="140" height="48" viewBox="0 0 140 48" fill="none" xmlns="http://www.w3.org/2000/svg">
<rect y="5.14087" width="0.880502" height="13.7078" rx="0.440251" fill="url(#paint0_linear_121_998)"/>
<rect x="6.16357" y="1.71484" width="0.880502" height="19.705" rx="0.440251" fill="url(#paint1_linear_121_998)"/>
<rect x="11.4463" y="4.28723" width="0.880502" height="14.5646" rx="0.440251" fill="url(#paint2_linear_121_998)"/>
<rect x="17.6099" y="5.99622" width="0.880502" height="11.1376" rx="0.440251" fill="url(#paint3_linear_121_998)"/>
<rect x="23.7734" y="0.859375" width="0.880502" height="21.4185" rx="0.440251" fill="url(#paint4_linear_121_998)"/>
<rect x="29.0566" y="3.42981" width="0.880502" height="16.278" rx="0.440251" fill="url(#paint5_linear_121_998)"/>
<path d="M67.3354 20.5613H52.5674V18.0908H67.3354V20.5613ZM67.3354 2.5884H52.5674V0.158325H67.3354V2.5884ZM64.8491 12.1378H52.5674V9.4236H64.8491V12.1378Z" fill="url(#paint6_linear_121_998)"/>
<path d="M81.8563 0.158325L89.495 20.5613H87.0333L79.686 3.85479L73.0823 20.5612L70.3535 20.5613L77.9921 0.158325H81.8563Z" fill="url(#paint7_linear_121_998)"/>
<path d="M95.0948 17.1342H107.266V20.5613H92.4983V0.158325H95.0948V17.1342Z" fill="url(#paint8_linear_121_998)"/>
<path d="M124.384 0L132.022 20.4029H129.561L122.213 3.69647L115.61 20.4029L112.881 20.4029L120.52 0H124.384Z" fill="url(#paint9_linear_121_998)"/>
<path d="M137.359 0.857422H140V18.9203L137.359 20.5624V0.857422Z" fill="url(#paint10_linear_121_998)"/>
<rect x="34.3403" y="10.2834" width="13.2075" height="2.57022" fill="url(#paint11_linear_121_998)"/>
<rect x="49.3091" width="20.5617" height="2.6415" transform="rotate(90 49.3091 0)" fill="url(#paint12_linear_121_998)"/>
<path d="M38.9043 36.575L38.4854 35.2H36.3796L35.9608 36.575H34.6411L36.6798 30.7749H38.1773L40.2239 36.575H38.9043ZM38.1931 34.1727L37.7743 32.8294C37.7479 32.7398 37.7124 32.6253 37.6676 32.4857C37.6254 32.3434 37.582 32.1999 37.5372 32.055C37.4951 31.9075 37.4608 31.7797 37.4345 31.6717C37.4081 31.7797 37.3713 31.9141 37.3238 32.0748C37.2791 32.2328 37.2356 32.3829 37.1935 32.5252C37.1513 32.6674 37.121 32.7688 37.1026 32.8294L36.6877 34.1727H38.1931ZM40.9548 36.575V30.7986H42.1796V36.575H40.9548ZM47.5807 30.7986C48.3261 30.7986 48.87 30.9592 49.2124 31.2806C49.5549 31.5993 49.7261 32.0392 49.7261 32.6002C49.7261 32.8531 49.6879 33.0954 49.6115 33.3272C49.5351 33.5564 49.41 33.7605 49.2361 33.9396C49.0649 34.1187 48.8358 34.261 48.5487 34.3663C48.2616 34.4691 47.9073 34.5204 47.4858 34.5204H46.9604V36.575H45.7355V30.7986H47.5807ZM47.5175 31.8021H46.9604V33.5169H47.3634C47.5925 33.5169 47.7914 33.4866 47.96 33.426C48.1285 33.3654 48.2589 33.2706 48.3511 33.1415C48.4433 33.0125 48.4894 32.8465 48.4894 32.6437C48.4894 32.3592 48.4104 32.1485 48.2523 32.0115C48.0943 31.8719 47.8493 31.8021 47.5175 31.8021ZM56.0595 33.6789C56.0595 34.124 56.0042 34.5296 55.8936 34.8958C55.783 35.2593 55.6144 35.5727 55.3879 35.8361C55.164 36.0995 54.8795 36.3023 54.5344 36.4446C54.1894 36.5842 53.7811 36.654 53.3096 36.654C52.8381 36.654 52.4299 36.5842 52.0848 36.4446C51.7398 36.3023 51.454 36.0995 51.2275 35.8361C51.0036 35.5727 50.8363 35.2579 50.7257 34.8918C50.615 34.5257 50.5597 34.1187 50.5597 33.671C50.5597 33.073 50.6572 32.5528 50.8521 32.1103C51.0497 31.6652 51.3526 31.3201 51.7608 31.0751C52.1691 30.8302 52.688 30.7077 53.3175 30.7077C53.9444 30.7077 54.4594 30.8302 54.8624 31.0751C55.268 31.3201 55.5683 31.6652 55.7632 32.1103C55.9608 32.5555 56.0595 33.0783 56.0595 33.6789ZM51.8438 33.6789C51.8438 34.0819 51.8939 34.4296 51.9939 34.7219C52.0967 35.0117 52.256 35.2356 52.472 35.3936C52.688 35.549 52.9672 35.6267 53.3096 35.6267C53.6573 35.6267 53.9392 35.549 54.1551 35.3936C54.3711 35.2356 54.5279 35.0117 54.6253 34.7219C54.7254 34.4296 54.7755 34.0819 54.7755 33.6789C54.7755 33.073 54.6622 32.5963 54.4357 32.2486C54.2091 31.9009 53.8364 31.7271 53.3175 31.7271C52.9725 31.7271 52.6906 31.8061 52.472 31.9641C52.256 32.1195 52.0967 32.3434 51.9939 32.6358C51.8939 32.9255 51.8438 33.2732 51.8438 33.6789ZM64.3527 30.7986L62.8829 36.575H61.4882L60.7059 33.5406C60.6901 33.4826 60.669 33.3944 60.6427 33.2759C60.6164 33.1573 60.5887 33.0283 60.5597 32.8887C60.5308 32.7464 60.5044 32.6134 60.4807 32.4896C60.4596 32.3632 60.4452 32.2631 60.4373 32.1893C60.4294 32.2631 60.4135 32.3619 60.3898 32.4857C60.3688 32.6095 60.3437 32.7412 60.3148 32.8808C60.2884 33.0204 60.2621 33.1507 60.2358 33.2719C60.2094 33.3931 60.1883 33.4853 60.1725 33.5485L59.3942 36.575H58.0034L56.5297 30.7986H57.7348L58.4736 33.9515C58.4947 34.0463 58.5184 34.1596 58.5447 34.2913C58.5737 34.423 58.6014 34.5613 58.6277 34.7061C58.6567 34.8484 58.6817 34.9866 58.7028 35.121C58.7265 35.2527 58.7436 35.3673 58.7541 35.4647C58.7673 35.3646 58.7844 35.2487 58.8055 35.117C58.8266 34.9827 58.8489 34.847 58.8727 34.7101C58.899 34.5705 58.9253 34.4414 58.9517 34.3229C58.978 34.2043 59.0017 34.1082 59.0228 34.0345L59.8644 30.7986H61.022L61.8636 34.0345C61.882 34.1056 61.9031 34.2017 61.9268 34.3229C61.9531 34.4414 61.9795 34.5705 62.0058 34.7101C62.0321 34.8497 62.0559 34.9866 62.0769 35.121C62.1006 35.2527 62.1177 35.3673 62.1283 35.4647C62.1467 35.333 62.1717 35.1737 62.2034 34.9866C62.2376 34.797 62.2732 34.6087 62.31 34.4217C62.3495 34.2346 62.3838 34.0779 62.4128 33.9515L63.1476 30.7986H64.3527ZM68.4064 36.575H65.0797V30.7986H68.4064V31.8021H66.3045V33.0704H68.2603V34.074H66.3045V35.5635H68.4064V36.575ZM71.2986 30.7986C71.8227 30.7986 72.2547 30.8618 72.5945 30.9882C72.9369 31.1147 73.1911 31.3056 73.3571 31.5611C73.523 31.8166 73.606 32.1393 73.606 32.5291C73.606 32.7925 73.5559 33.023 73.4558 33.2205C73.3557 33.4181 73.224 33.5854 73.0607 33.7223C72.8974 33.8593 72.7209 33.9712 72.5313 34.0582L74.2302 36.575H72.8711L71.4922 34.3584H70.8403V36.575H69.6154V30.7986H71.2986ZM71.2117 31.8021H70.8403V33.3628H71.2354C71.641 33.3628 71.9307 33.2956 72.1046 33.1613C72.2811 33.0243 72.3693 32.8241 72.3693 32.5607C72.3693 32.2868 72.2745 32.0919 72.0848 31.976C71.8978 31.8601 71.6068 31.8021 71.2117 31.8021ZM78.284 36.575H74.9572V30.7986H78.284V31.8021H76.182V33.0704H78.1378V34.074H76.182V35.5635H78.284V36.575ZM84.2855 33.6314C84.2855 34.282 84.1604 34.826 83.9102 35.2632C83.6626 35.6978 83.3031 36.0258 82.8316 36.247C82.3601 36.4656 81.7925 36.575 81.1287 36.575H79.493V30.7986H81.3065C81.9123 30.7986 82.4378 30.9066 82.8829 31.1226C83.3281 31.3359 83.6731 31.6533 83.9181 32.0748C84.1631 32.4936 84.2855 33.0125 84.2855 33.6314ZM83.0133 33.6631C83.0133 33.2363 82.9501 32.886 82.8237 32.6121C82.6999 32.3355 82.5155 32.1314 82.2705 31.9997C82.0282 31.868 81.7279 31.8021 81.3697 31.8021H80.7178V35.5635H81.2433C81.8412 35.5635 82.285 35.4041 82.5748 35.0854C82.8671 34.7667 83.0133 34.2926 83.0133 33.6631ZM40.1014 47.575H38.8805V45.0819H36.5929V47.575H35.3681V41.7986H36.5929V44.0625H38.8805V41.7986H40.1014V47.575ZM44.89 47.575H41.5633V41.7986H44.89V42.8021H42.7881V44.0704H44.7438V45.074H42.7881V46.5635H44.89V47.575ZM49.6352 47.575L49.2164 46.2H47.1105L46.6917 47.575H45.3721L47.4108 41.7749H48.9082L50.9548 47.575H49.6352ZM48.924 45.1727L48.5052 43.8294C48.4789 43.7398 48.4433 43.6253 48.3985 43.4857C48.3564 43.3434 48.3129 43.1999 48.2681 43.055C48.226 42.9075 48.1918 42.7797 48.1654 42.6717C48.1391 42.7797 48.1022 42.9141 48.0548 43.0748C48.01 43.2328 47.9666 43.3829 47.9244 43.5252C47.8823 43.6674 47.852 43.7688 47.8335 43.8294L47.4187 45.1727H48.924ZM51.6858 47.575V41.7986H52.9106V46.5635H55.2535V47.575H51.6858ZM56.261 47.575V41.7986H57.4858V47.575H56.261ZM64.0643 47.575H62.5076L59.9947 43.2051H59.9592C59.9697 43.3869 59.9789 43.5699 59.9868 43.7543C59.9947 43.9387 60.0026 44.1231 60.0105 44.3075C60.0184 44.4892 60.0263 44.6723 60.0343 44.8567V47.575H58.9398V41.7986H60.4847L62.9936 46.1249H63.0212C63.0159 45.9458 63.0094 45.768 63.0015 45.5915C62.9936 45.4151 62.9857 45.2386 62.9778 45.0621C62.9725 44.8856 62.9672 44.7092 62.9619 44.5327V41.7986H64.0643V47.575ZM67.715 44.3312H70.0066V47.326C69.7037 47.4261 69.3889 47.5065 69.0623 47.567C68.7357 47.625 68.3656 47.654 67.9521 47.654C67.3779 47.654 66.8906 47.5407 66.4902 47.3142C66.0898 47.0877 65.7856 46.7531 65.5775 46.3106C65.3694 45.8681 65.2654 45.3242 65.2654 44.6789C65.2654 44.073 65.3813 43.5489 65.6131 43.1064C65.8475 42.6638 66.1886 42.3214 66.6364 42.0791C67.0868 41.8368 67.636 41.7156 68.284 41.7156C68.5895 41.7156 68.8911 41.7485 69.1887 41.8144C69.4864 41.8802 69.7564 41.9658 69.9987 42.0712L69.5917 43.051C69.4153 42.9615 69.2138 42.8864 68.9872 42.8258C68.7607 42.7653 68.5237 42.735 68.2761 42.735C67.9205 42.735 67.611 42.8166 67.3476 42.9799C67.0868 43.1432 66.884 43.3724 66.7391 43.6674C66.5969 43.9598 66.5258 44.3048 66.5258 44.7026C66.5258 45.0792 66.5771 45.4137 66.6798 45.7061C66.7826 45.9959 66.9446 46.2237 67.1658 46.3896C67.3871 46.553 67.6755 46.6346 68.0311 46.6346C68.2049 46.6346 68.3511 46.6267 68.4697 46.6109C68.5908 46.5925 68.7041 46.574 68.8094 46.5556V45.3505H67.715V44.3312Z" fill="url(#paint13_linear_121_998)"/>
<defs>
<linearGradient id="paint0_linear_121_998" x1="6.56025e-09" y1="18.8487" x2="1.42665" y2="18.7916" gradientUnits="userSpaceOnUse">
<stop offset="0.0950176" stop-color="#5189F8"/>
<stop offset="0.418062" stop-color="#6E63FD"/>
<stop offset="0.835" stop-color="#8B4AFF"/>
</linearGradient>
<linearGradient id="paint1_linear_121_998" x1="6.16357" y1="21.4198" x2="7.5914" y2="21.3801" gradientUnits="userSpaceOnUse">
<stop offset="0.0950176" stop-color="#5189F8"/>
<stop offset="0.418062" stop-color="#6E63FD"/>
<stop offset="0.835" stop-color="#8B4AFF"/>
</linearGradient>
<linearGradient id="paint2_linear_121_998" x1="11.4463" y1="18.8518" x2="12.8732" y2="18.7981" gradientUnits="userSpaceOnUse">
<stop offset="0.0950176" stop-color="#5189F8"/>
<stop offset="0.418062" stop-color="#6E63FD"/>
<stop offset="0.835" stop-color="#8B4AFF"/>
</linearGradient>
<linearGradient id="paint3_linear_121_998" x1="17.6099" y1="17.1338" x2="19.0353" y2="17.0636" gradientUnits="userSpaceOnUse">
<stop offset="0.0950176" stop-color="#5189F8"/>
<stop offset="0.418062" stop-color="#6E63FD"/>
<stop offset="0.835" stop-color="#8B4AFF"/>
</linearGradient>
<linearGradient id="paint4_linear_121_998" x1="23.7734" y1="22.2779" x2="25.2014" y2="22.2413" gradientUnits="userSpaceOnUse">
<stop offset="0.0950176" stop-color="#5189F8"/>
<stop offset="0.418062" stop-color="#6E63FD"/>
<stop offset="0.835" stop-color="#8B4AFF"/>
</linearGradient>
<linearGradient id="paint5_linear_121_998" x1="29.0566" y1="19.7079" x2="30.484" y2="19.6598" gradientUnits="userSpaceOnUse">
<stop offset="0.0950176" stop-color="#5189F8"/>
<stop offset="0.418062" stop-color="#6E63FD"/>
<stop offset="0.835" stop-color="#8B4AFF"/>
</linearGradient>
<linearGradient id="paint6_linear_121_998" x1="52.5674" y1="20.5613" x2="75.9991" y2="-18.5662" gradientUnits="userSpaceOnUse">
<stop offset="0.0950176" stop-color="#5189F8"/>
<stop offset="0.418062" stop-color="#6E63FD"/>
<stop offset="0.835" stop-color="#8B4AFF"/>
</linearGradient>
<linearGradient id="paint7_linear_121_998" x1="52.5674" y1="20.5613" x2="75.9991" y2="-18.5662" gradientUnits="userSpaceOnUse">
<stop offset="0.0950176" stop-color="#5189F8"/>
<stop offset="0.418062" stop-color="#6E63FD"/>
<stop offset="0.835" stop-color="#8B4AFF"/>
</linearGradient>
<linearGradient id="paint8_linear_121_998" x1="52.5674" y1="20.5613" x2="75.9991" y2="-18.5662" gradientUnits="userSpaceOnUse">
<stop offset="0.0950176" stop-color="#5189F8"/>
<stop offset="0.418062" stop-color="#6E63FD"/>
<stop offset="0.835" stop-color="#8B4AFF"/>
</linearGradient>
<linearGradient id="paint9_linear_121_998" x1="112.881" y1="20.4029" x2="136.038" y2="6.87122" gradientUnits="userSpaceOnUse">
<stop offset="0.0950176" stop-color="#5189F8"/>
<stop offset="0.418062" stop-color="#6E63FD"/>
<stop offset="0.835" stop-color="#8B4AFF"/>
</linearGradient>
<linearGradient id="paint10_linear_121_998" x1="137.359" y1="20.5624" x2="141.616" y2="20.207" gradientUnits="userSpaceOnUse">
<stop offset="0.0950176" stop-color="#5189F8"/>
<stop offset="0.418062" stop-color="#6E63FD"/>
<stop offset="0.835" stop-color="#8B4AFF"/>
</linearGradient>
<linearGradient id="paint11_linear_121_998" x1="34.3403" y1="12.8537" x2="36.2465" y2="6.75254" gradientUnits="userSpaceOnUse">
<stop offset="0.0950176" stop-color="#5189F8"/>
<stop offset="0.418062" stop-color="#6E63FD"/>
<stop offset="0.835" stop-color="#8B4AFF"/>
</linearGradient>
<linearGradient id="paint12_linear_121_998" x1="49.3091" y1="2.6415" x2="50.6707" y2="-3.96008" gradientUnits="userSpaceOnUse">
<stop offset="0.0950176" stop-color="#5189F8"/>
<stop offset="0.418062" stop-color="#6E63FD"/>
<stop offset="0.835" stop-color="#8B4AFF"/>
</linearGradient>
<linearGradient id="paint13_linear_121_998" x1="34.6411" y1="36.9991" x2="38.9847" y2="13.2386" gradientUnits="userSpaceOnUse">
<stop offset="0.0950176" stop-color="#5189F8"/>
<stop offset="0.418062" stop-color="#6E63FD"/>
<stop offset="0.835" stop-color="#8B4AFF"/>
</linearGradient>
</defs>
</svg>
