<svg width="140" height="39" viewBox="0 0 140 39" fill="none" xmlns="http://www.w3.org/2000/svg">
<rect y="5.35291" width="0.880502" height="13.7078" rx="0.440251" fill="url(#paint0_linear_121_998)"/>
<rect x="6.16357" y="1.92688" width="0.880502" height="19.705" rx="0.440251" fill="url(#paint1_linear_121_998)"/>
<rect x="11.4463" y="4.49927" width="0.880502" height="14.5646" rx="0.440251" fill="url(#paint2_linear_121_998)"/>
<rect x="17.6099" y="6.20825" width="0.880502" height="11.1376" rx="0.440251" fill="url(#paint3_linear_121_998)"/>
<rect x="23.7734" y="1.07141" width="0.880502" height="21.4185" rx="0.440251" fill="url(#paint4_linear_121_998)"/>
<rect x="29.0566" y="3.64185" width="0.880502" height="16.278" rx="0.440251" fill="url(#paint5_linear_121_998)"/>
<path d="M67.3354 20.7733H52.5674V18.3028H67.3354V20.7733ZM67.3354 2.80044H52.5674V0.370361H67.3354V2.80044ZM64.8491 12.3498H52.5674V9.63563H64.8491V12.3498Z" fill="url(#paint6_linear_121_998)"/>
<path d="M81.8563 0.370361L89.495 20.7733H87.0333L79.686 4.06683L73.0823 20.7732L70.3535 20.7733L77.9921 0.370361H81.8563Z" fill="url(#paint7_linear_121_998)"/>
<path d="M95.0948 17.3463H107.266V20.7733H92.4983V0.370361H95.0948V17.3463Z" fill="url(#paint8_linear_121_998)"/>
<path d="M124.384 0.212036L132.022 20.615H129.561L122.213 3.9085L115.61 20.6149L112.881 20.615L120.52 0.212036H124.384Z" fill="url(#paint9_linear_121_998)"/>
<path d="M137.359 1.06946H140V19.1324L137.359 20.7745V1.06946Z" fill="url(#paint10_linear_121_998)"/>
<rect x="34.3403" y="10.4955" width="13.2075" height="2.57022" fill="url(#paint11_linear_121_998)"/>
<rect x="49.3091" y="0.212036" width="20.5617" height="2.6415" transform="rotate(90 49.3091 0.212036)" fill="url(#paint12_linear_121_998)"/>
<path d="M38.9043 36.787L38.4854 35.412H36.3796L35.9608 36.787H34.6411L36.6798 30.9869H38.1773L40.2239 36.787H38.9043ZM38.1931 34.3848L37.7743 33.0414C37.7479 32.9519 37.7124 32.8373 37.6676 32.6977C37.6254 32.5555 37.582 32.4119 37.5372 32.267C37.4951 32.1195 37.4608 31.9918 37.4345 31.8838C37.4081 31.9918 37.3713 32.1261 37.3238 32.2868C37.2791 32.4448 37.2356 32.595 37.1935 32.7372C37.1513 32.8794 37.121 32.9808 37.1026 33.0414L36.6877 34.3848H38.1931ZM40.9548 36.787V31.0106H42.1796V36.787H40.9548ZM47.5807 31.0106C48.3261 31.0106 48.87 31.1713 49.2124 31.4926C49.5549 31.8113 49.7261 32.2512 49.7261 32.8123C49.7261 33.0651 49.6879 33.3075 49.6115 33.5393C49.5351 33.7684 49.41 33.9726 49.2361 34.1517C49.0649 34.3308 48.8358 34.473 48.5487 34.5784C48.2616 34.6811 47.9073 34.7325 47.4858 34.7325H46.9604V36.787H45.7355V31.0106H47.5807ZM47.5175 32.0142H46.9604V33.7289H47.3634C47.5925 33.7289 47.7914 33.6986 47.96 33.638C48.1285 33.5775 48.2589 33.4826 48.3511 33.3536C48.4433 33.2245 48.4894 33.0586 48.4894 32.8557C48.4894 32.5713 48.4104 32.3605 48.2523 32.2236C48.0943 32.084 47.8493 32.0142 47.5175 32.0142ZM56.0595 33.8909C56.0595 34.336 56.0042 34.7417 55.8936 35.1078C55.783 35.4713 55.6144 35.7847 55.3879 36.0481C55.164 36.3115 54.8795 36.5144 54.5344 36.6566C54.1894 36.7962 53.7811 36.866 53.3096 36.866C52.8381 36.866 52.4299 36.7962 52.0848 36.6566C51.7398 36.5144 51.454 36.3115 51.2275 36.0481C51.0036 35.7847 50.8363 35.47 50.7257 35.1039C50.615 34.7377 50.5597 34.3308 50.5597 33.883C50.5597 33.2851 50.6572 32.7649 50.8521 32.3223C51.0497 31.8772 51.3526 31.5321 51.7608 31.2872C52.1691 31.0422 52.688 30.9197 53.3175 30.9197C53.9444 30.9197 54.4594 31.0422 54.8624 31.2872C55.268 31.5321 55.5683 31.8772 55.7632 32.3223C55.9608 32.7675 56.0595 33.2903 56.0595 33.8909ZM51.8438 33.8909C51.8438 34.2939 51.8939 34.6416 51.9939 34.934C52.0967 35.2237 52.256 35.4476 52.472 35.6056C52.688 35.761 52.9672 35.8387 53.3096 35.8387C53.6573 35.8387 53.9392 35.761 54.1551 35.6056C54.3711 35.4476 54.5279 35.2237 54.6253 34.934C54.7254 34.6416 54.7755 34.2939 54.7755 33.8909C54.7755 33.2851 54.6622 32.8083 54.4357 32.4606C54.2091 32.1129 53.8364 31.9391 53.3175 31.9391C52.9725 31.9391 52.6906 32.0181 52.472 32.1762C52.256 32.3316 52.0967 32.5555 51.9939 32.8478C51.8939 33.1376 51.8438 33.4853 51.8438 33.8909ZM64.3527 31.0106L62.8829 36.787H61.4882L60.7059 33.7526C60.6901 33.6947 60.669 33.6064 60.6427 33.4879C60.6164 33.3694 60.5887 33.2403 60.5597 33.1007C60.5308 32.9585 60.5044 32.8254 60.4807 32.7016C60.4596 32.5752 60.4452 32.4751 60.4373 32.4014C60.4294 32.4751 60.4135 32.5739 60.3898 32.6977C60.3688 32.8215 60.3437 32.9532 60.3148 33.0928C60.2884 33.2324 60.2621 33.3628 60.2358 33.4839C60.2094 33.6051 60.1883 33.6973 60.1725 33.7605L59.3942 36.787H58.0034L56.5297 31.0106H57.7348L58.4736 34.1635C58.4947 34.2583 58.5184 34.3716 58.5447 34.5033C58.5737 34.635 58.6014 34.7733 58.6277 34.9182C58.6567 35.0604 58.6817 35.1987 58.7028 35.333C58.7265 35.4647 58.7436 35.5793 58.7541 35.6768C58.7673 35.5767 58.7844 35.4608 58.8055 35.3291C58.8266 35.1947 58.8489 35.0591 58.8727 34.9221C58.899 34.7825 58.9253 34.6534 58.9517 34.5349C58.978 34.4164 59.0017 34.3202 59.0228 34.2465L59.8644 31.0106H61.022L61.8636 34.2465C61.882 34.3176 61.9031 34.4137 61.9268 34.5349C61.9531 34.6534 61.9795 34.7825 62.0058 34.9221C62.0321 35.0617 62.0559 35.1987 62.0769 35.333C62.1006 35.4647 62.1177 35.5793 62.1283 35.6768C62.1467 35.5451 62.1717 35.3857 62.2034 35.1987C62.2376 35.009 62.2732 34.8207 62.31 34.6337C62.3495 34.4467 62.3838 34.2899 62.4128 34.1635L63.1476 31.0106H64.3527ZM68.4064 36.787H65.0797V31.0106H68.4064V32.0142H66.3045V33.2824H68.2603V34.286H66.3045V35.7755H68.4064V36.787ZM71.2986 31.0106C71.8227 31.0106 72.2547 31.0738 72.5945 31.2003C72.9369 31.3267 73.1911 31.5177 73.3571 31.7732C73.523 32.0287 73.606 32.3513 73.606 32.7412C73.606 33.0046 73.5559 33.235 73.4558 33.4326C73.3557 33.6301 73.224 33.7974 73.0607 33.9344C72.8974 34.0713 72.7209 34.1833 72.5313 34.2702L74.2302 36.787H72.8711L71.4922 34.5705H70.8403V36.787H69.6154V31.0106H71.2986ZM71.2117 32.0142H70.8403V33.5748H71.2354C71.641 33.5748 71.9307 33.5076 72.1046 33.3733C72.2811 33.2363 72.3693 33.0362 72.3693 32.7728C72.3693 32.4988 72.2745 32.3039 72.0848 32.188C71.8978 32.0721 71.6068 32.0142 71.2117 32.0142ZM78.284 36.787H74.9572V31.0106H78.284V32.0142H76.182V33.2824H78.1378V34.286H76.182V35.7755H78.284V36.787ZM84.2855 33.8435C84.2855 34.4941 84.1604 35.038 83.9102 35.4753C83.6626 35.9099 83.3031 36.2378 82.8316 36.4591C82.3601 36.6777 81.7925 36.787 81.1287 36.787H79.493V31.0106H81.3065C81.9123 31.0106 82.4378 31.1186 82.8829 31.3346C83.3281 31.5479 83.6731 31.8653 83.9181 32.2868C84.1631 32.7056 84.2855 33.2245 84.2855 33.8435ZM83.0133 33.8751C83.0133 33.4484 82.9501 33.0981 82.8237 32.8241C82.6999 32.5476 82.5155 32.3434 82.2705 32.2117C82.0282 32.08 81.7279 32.0142 81.3697 32.0142H80.7178V35.7755H81.2433C81.8412 35.7755 82.285 35.6162 82.5748 35.2975C82.8671 34.9787 83.0133 34.5046 83.0133 33.8751ZM92.3179 36.787H91.0971V34.2939H88.8095V36.787H87.5846V31.0106H88.8095V33.2745H91.0971V31.0106H92.3179V36.787ZM97.1066 36.787H93.7798V31.0106H97.1066V32.0142H95.0046V33.2824H96.9604V34.286H95.0046V35.7755H97.1066V36.787ZM101.852 36.787L101.433 35.412H99.327L98.9082 36.787H97.5886L99.6273 30.9869H101.125L103.171 36.787H101.852ZM101.141 34.3848L100.722 33.0414C100.695 32.9519 100.66 32.8373 100.615 32.6977C100.573 32.5555 100.529 32.4119 100.485 32.267C100.443 32.1195 100.408 31.9918 100.382 31.8838C100.356 31.9918 100.319 32.1261 100.271 32.2868C100.227 32.4448 100.183 32.595 100.141 32.7372C100.099 32.8794 100.069 32.9808 100.05 33.0414L99.6352 34.3848H101.141ZM103.902 36.787V31.0106H105.127V35.7755H107.47V36.787H103.902ZM108.478 36.787V31.0106H109.702V36.787H108.478ZM116.281 36.787H114.724L112.211 32.4172H112.176C112.186 32.5989 112.195 32.782 112.203 32.9664C112.211 33.1507 112.219 33.3351 112.227 33.5195C112.235 33.7012 112.243 33.8843 112.251 34.0687V36.787H111.156V31.0106H112.701L115.21 35.337H115.238C115.232 35.1579 115.226 34.9801 115.218 34.8036C115.21 34.6271 115.202 34.4506 115.194 34.2741C115.189 34.0977 115.184 33.9212 115.178 33.7447V31.0106H116.281V36.787ZM119.932 33.5432H122.223V36.5381C121.92 36.6382 121.605 36.7185 121.279 36.7791C120.952 36.837 120.582 36.866 120.169 36.866C119.594 36.866 119.107 36.7527 118.707 36.5262C118.306 36.2997 118.002 35.9652 117.794 35.5227C117.586 35.0802 117.482 34.5362 117.482 33.8909C117.482 33.2851 117.598 32.7609 117.83 32.3184C118.064 31.8759 118.405 31.5335 118.853 31.2911C119.303 31.0488 119.853 30.9276 120.5 30.9276C120.806 30.9276 121.108 30.9606 121.405 31.0264C121.703 31.0923 121.973 31.1779 122.215 31.2832L121.808 32.2631C121.632 32.1735 121.43 32.0985 121.204 32.0379C120.977 31.9773 120.74 31.947 120.493 31.947C120.137 31.947 119.828 32.0287 119.564 32.192C119.303 32.3553 119.101 32.5844 118.956 32.8794C118.813 33.1718 118.742 33.5169 118.742 33.9146C118.742 34.2913 118.794 34.6258 118.896 34.9182C118.999 35.2079 119.161 35.4357 119.382 35.6017C119.604 35.765 119.892 35.8466 120.248 35.8466C120.421 35.8466 120.568 35.8387 120.686 35.8229C120.807 35.8045 120.921 35.7861 121.026 35.7676V34.5626H119.932V33.5432Z" fill="url(#paint13_linear_121_998)"/>
<defs>
<linearGradient id="paint0_linear_121_998" x1="6.56025e-09" y1="19.0607" x2="1.42665" y2="19.0037" gradientUnits="userSpaceOnUse">
<stop offset="0.0950176" stop-color="#5189F8"/>
<stop offset="0.418062" stop-color="#6E63FD"/>
<stop offset="0.835" stop-color="#8B4AFF"/>
</linearGradient>
<linearGradient id="paint1_linear_121_998" x1="6.16357" y1="21.6319" x2="7.5914" y2="21.5921" gradientUnits="userSpaceOnUse">
<stop offset="0.0950176" stop-color="#5189F8"/>
<stop offset="0.418062" stop-color="#6E63FD"/>
<stop offset="0.835" stop-color="#8B4AFF"/>
</linearGradient>
<linearGradient id="paint2_linear_121_998" x1="11.4463" y1="19.0638" x2="12.8732" y2="19.0101" gradientUnits="userSpaceOnUse">
<stop offset="0.0950176" stop-color="#5189F8"/>
<stop offset="0.418062" stop-color="#6E63FD"/>
<stop offset="0.835" stop-color="#8B4AFF"/>
</linearGradient>
<linearGradient id="paint3_linear_121_998" x1="17.6099" y1="17.3459" x2="19.0353" y2="17.2757" gradientUnits="userSpaceOnUse">
<stop offset="0.0950176" stop-color="#5189F8"/>
<stop offset="0.418062" stop-color="#6E63FD"/>
<stop offset="0.835" stop-color="#8B4AFF"/>
</linearGradient>
<linearGradient id="paint4_linear_121_998" x1="23.7734" y1="22.4899" x2="25.2014" y2="22.4533" gradientUnits="userSpaceOnUse">
<stop offset="0.0950176" stop-color="#5189F8"/>
<stop offset="0.418062" stop-color="#6E63FD"/>
<stop offset="0.835" stop-color="#8B4AFF"/>
</linearGradient>
<linearGradient id="paint5_linear_121_998" x1="29.0566" y1="19.9199" x2="30.484" y2="19.8718" gradientUnits="userSpaceOnUse">
<stop offset="0.0950176" stop-color="#5189F8"/>
<stop offset="0.418062" stop-color="#6E63FD"/>
<stop offset="0.835" stop-color="#8B4AFF"/>
</linearGradient>
<linearGradient id="paint6_linear_121_998" x1="52.5674" y1="20.7733" x2="75.9991" y2="-18.3542" gradientUnits="userSpaceOnUse">
<stop offset="0.0950176" stop-color="#5189F8"/>
<stop offset="0.418062" stop-color="#6E63FD"/>
<stop offset="0.835" stop-color="#8B4AFF"/>
</linearGradient>
<linearGradient id="paint7_linear_121_998" x1="52.5674" y1="20.7733" x2="75.9991" y2="-18.3542" gradientUnits="userSpaceOnUse">
<stop offset="0.0950176" stop-color="#5189F8"/>
<stop offset="0.418062" stop-color="#6E63FD"/>
<stop offset="0.835" stop-color="#8B4AFF"/>
</linearGradient>
<linearGradient id="paint8_linear_121_998" x1="52.5674" y1="20.7733" x2="75.9991" y2="-18.3542" gradientUnits="userSpaceOnUse">
<stop offset="0.0950176" stop-color="#5189F8"/>
<stop offset="0.418062" stop-color="#6E63FD"/>
<stop offset="0.835" stop-color="#8B4AFF"/>
</linearGradient>
<linearGradient id="paint9_linear_121_998" x1="112.881" y1="20.615" x2="136.038" y2="7.08326" gradientUnits="userSpaceOnUse">
<stop offset="0.0950176" stop-color="#5189F8"/>
<stop offset="0.418062" stop-color="#6E63FD"/>
<stop offset="0.835" stop-color="#8B4AFF"/>
</linearGradient>
<linearGradient id="paint10_linear_121_998" x1="137.359" y1="20.7745" x2="141.616" y2="20.419" gradientUnits="userSpaceOnUse">
<stop offset="0.0950176" stop-color="#5189F8"/>
<stop offset="0.418062" stop-color="#6E63FD"/>
<stop offset="0.835" stop-color="#8B4AFF"/>
</linearGradient>
<linearGradient id="paint11_linear_121_998" x1="34.3403" y1="13.0657" x2="36.2465" y2="6.96457" gradientUnits="userSpaceOnUse">
<stop offset="0.0950176" stop-color="#5189F8"/>
<stop offset="0.418062" stop-color="#6E63FD"/>
<stop offset="0.835" stop-color="#8B4AFF"/>
</linearGradient>
<linearGradient id="paint12_linear_121_998" x1="49.3091" y1="2.85354" x2="50.6707" y2="-3.74805" gradientUnits="userSpaceOnUse">
<stop offset="0.0950176" stop-color="#5189F8"/>
<stop offset="0.418062" stop-color="#6E63FD"/>
<stop offset="0.835" stop-color="#8B4AFF"/>
</linearGradient>
<linearGradient id="paint13_linear_121_998" x1="34.6411" y1="38.787" x2="40.1128" y2="11.2123" gradientUnits="userSpaceOnUse">
<stop offset="0.0950176" stop-color="#5189F8"/>
<stop offset="0.418062" stop-color="#6E63FD"/>
<stop offset="0.835" stop-color="#8B4AFF"/>
</linearGradient>
</defs>
</svg>
